<svg width="12" height="12" viewBox="0 0 12 12" fill="none" xmlns="http://www.w3.org/2000/svg">
<g clip-path="url(#clip0_190_1804)">
<path d="M6.50003 1.0255V0.5C6.50003 0.367392 6.44735 0.240215 6.35358 0.146447C6.25981 0.0526784 6.13264 0 6.00003 0C5.86742 0 5.74024 0.0526784 5.64647 0.146447C5.55271 0.240215 5.50003 0.367392 5.50003 0.5V1.0255C4.49341 1.11574 3.53124 1.4821 2.71952 2.08421C1.9078 2.68632 1.27804 3.50081 0.899619 4.43794C0.521198 5.37507 0.408806 6.39848 0.574824 7.3954C0.740843 8.39233 1.17883 9.32408 1.84053 10.088C1.57921 10.2173 1.36084 10.4193 1.21172 10.6699C1.0626 10.9204 0.989082 11.2087 1.00003 11.5C1.00003 11.6326 1.05271 11.7598 1.14647 11.8536C1.24024 11.9473 1.36742 12 1.50003 12C1.63264 12 1.75981 11.9473 1.85358 11.8536C1.94735 11.7598 2.00003 11.6326 2.00003 11.5C1.99587 11.3459 2.0512 11.1961 2.15454 11.0817C2.25787 10.9673 2.40128 10.897 2.55503 10.8855C2.58942 10.879 2.62296 10.8686 2.65503 10.8545C3.61279 11.5974 4.79044 12.0005 6.00253 12.0005C7.21461 12.0005 8.39226 11.5974 9.35003 10.8545C9.3793 10.868 9.40976 10.8787 9.44103 10.8865C9.59531 10.897 9.73957 10.9667 9.84372 11.081C9.94787 11.1953 10.0039 11.3454 10 11.5C10 11.6326 10.0527 11.7598 10.1465 11.8536C10.2402 11.9473 10.3674 12 10.5 12C10.6326 12 10.7598 11.9473 10.8536 11.8536C10.9473 11.7598 11 11.6326 11 11.5C11.011 11.2087 10.9375 10.9204 10.7883 10.6699C10.6392 10.4193 10.4208 10.2173 10.1595 10.088C10.8212 9.32408 11.2592 8.39233 11.4252 7.3954C11.5912 6.39848 11.4789 5.37507 11.1004 4.43794C10.722 3.50081 10.0923 2.68632 9.28053 2.08421C8.46881 1.4821 7.50664 1.11574 6.50003 1.0255ZM1.50003 6.5C1.50003 5.60998 1.76395 4.73996 2.25841 3.99993C2.75288 3.25991 3.45568 2.68314 4.27795 2.34254C5.10022 2.00195 6.00502 1.91283 6.87793 2.08647C7.75085 2.2601 8.55267 2.68868 9.18201 3.31802C9.81134 3.94736 10.2399 4.74918 10.4136 5.62209C10.5872 6.49501 10.4981 7.39981 10.1575 8.22208C9.81689 9.04434 9.24011 9.74715 8.50009 10.2416C7.76007 10.7361 6.89004 11 6.00003 11C4.807 10.9985 3.66325 10.524 2.81965 9.68037C1.97606 8.83678 1.50148 7.69303 1.50003 6.5Z" fill="#2D94CF"/>
<path d="M9.60742 -1.08714e-05C9.47481 -1.08714e-05 9.34764 0.0526676 9.25387 0.146436C9.1601 0.240204 9.10742 0.367381 9.10742 0.499989C9.10742 0.632597 9.1601 0.759774 9.25387 0.853543C9.34764 0.947311 9.47481 0.999989 9.60742 0.999989C9.78178 0.986735 9.95701 1.00893 10.1226 1.06523C10.2881 1.12153 10.4405 1.21078 10.5706 1.32758C10.7008 1.44439 10.8059 1.58633 10.8797 1.74486C10.9534 1.90339 10.9943 2.07522 10.9999 2.24999C10.9999 2.3826 11.0526 2.50977 11.1464 2.60354C11.2401 2.69731 11.3673 2.74999 11.4999 2.74999C11.6325 2.74999 11.7597 2.69731 11.8535 2.60354C11.9472 2.50977 11.9999 2.3826 11.9999 2.24999C11.9935 1.94424 11.9262 1.64283 11.8019 1.3634C11.6776 1.08398 11.4989 0.832142 11.2761 0.622631C11.0533 0.413121 10.791 0.250142 10.5045 0.143231C10.218 0.0363199 9.91299 -0.0123771 9.60742 -1.08714e-05Z" fill="#2D94CF"/>
<path d="M1 2.24999C1.00557 2.07522 1.04648 1.90339 1.12026 1.74486C1.19404 1.58633 1.29916 1.44439 1.42928 1.32758C1.5594 1.21078 1.71183 1.12153 1.87737 1.06523C2.04291 1.00893 2.21815 0.986735 2.3925 0.999989C2.52511 0.999989 2.65229 0.947311 2.74605 0.853543C2.83982 0.759774 2.8925 0.632597 2.8925 0.499989C2.8925 0.367381 2.83982 0.240204 2.74605 0.146436C2.65229 0.0526676 2.52511 -1.08714e-05 2.3925 -1.08714e-05C2.08693 -0.0123771 1.78196 0.0363199 1.49544 0.143231C1.20892 0.250142 0.946593 0.413121 0.723813 0.622631C0.501034 0.832142 0.322273 1.08398 0.19799 1.3634C0.0737076 1.64283 0.00639812 1.94424 0 2.24999C0 2.3826 0.0526784 2.50977 0.146447 2.60354C0.240215 2.69731 0.367392 2.74999 0.5 2.74999C0.632608 2.74999 0.759785 2.69731 0.853553 2.60354C0.947322 2.50977 1 2.3826 1 2.24999Z" fill="#2D94CF"/>
<path d="M6.50012 5.793V3.5C6.50012 3.36739 6.44744 3.24021 6.35368 3.14645C6.25991 3.05268 6.13273 3 6.00012 3C5.86751 3 5.74034 3.05268 5.64657 3.14645C5.5528 3.24021 5.50012 3.36739 5.50012 3.5V6C5.50015 6.1326 5.55285 6.25975 5.64662 6.3535L7.14662 7.8535C7.24092 7.94458 7.36722 7.99498 7.49832 7.99384C7.62942 7.9927 7.75483 7.94011 7.84753 7.84741C7.94024 7.75471 7.99282 7.6293 7.99396 7.4982C7.9951 7.3671 7.9447 7.2408 7.85362 7.1465L6.50012 5.793Z" fill="#2D94CF"/>
</g>
<defs>
<clipPath id="clip0_190_1804">
<rect width="12" height="12" fill="white"/>
</clipPath>
</defs>
</svg>
