<svg width="24" height="23" viewBox="0 0 24 23" fill="none" xmlns="http://www.w3.org/2000/svg">
<g clip-path="url(#clip0_59_423)">
<path d="M23.1213 8.69104L15.5363 1.42113C14.5975 0.524116 13.3259 0.020401 12.0003 0.020401C10.6746 0.020401 9.40301 0.524116 8.46426 1.42113L0.879256 8.69104C0.599682 8.95725 0.378026 9.274 0.227139 9.62291C0.0762514 9.97183 -0.00086626 10.346 0.00025622 10.7237V20.1316C0.00025622 20.8941 0.316327 21.6254 0.878936 22.1646C1.44155 22.7037 2.20461 23.0066 3.00026 23.0066H21.0003C21.7959 23.0066 22.559 22.7037 23.1216 22.1646C23.6842 21.6254 24.0003 20.8941 24.0003 20.1316V10.7237C24.0014 10.346 23.9243 9.97183 23.7734 9.62291C23.6225 9.274 23.4008 8.95725 23.1213 8.69104ZM15.0003 21.09H9.00026V17.3199C9.00026 16.5574 9.31633 15.8261 9.87894 15.2869C10.4415 14.7478 11.2046 14.4449 12.0003 14.4449C12.7959 14.4449 13.559 14.7478 14.1216 15.2869C14.6842 15.8261 15.0003 16.5574 15.0003 17.3199V21.09ZM22.0003 20.1316C22.0003 20.3858 21.8949 20.6295 21.7074 20.8093C21.5198 20.989 21.2655 21.09 21.0003 21.09H17.0003V17.3199C17.0003 16.049 16.4735 14.8303 15.5358 13.9317C14.5981 13.033 13.3263 12.5282 12.0003 12.5282C10.6742 12.5282 9.40241 13.033 8.46472 13.9317C7.52704 14.8303 7.00026 16.049 7.00026 17.3199V21.09H3.00026C2.73504 21.09 2.48069 20.989 2.29315 20.8093C2.10561 20.6295 2.00026 20.3858 2.00026 20.1316V10.7237C2.00118 10.4697 2.10645 10.2263 2.29326 10.0461L9.87826 2.77908C10.442 2.24139 11.2049 1.93953 12.0003 1.93953C12.7956 1.93953 13.5586 2.24139 14.1223 2.77908L21.7073 10.049C21.8933 10.2284 21.9985 10.4707 22.0003 10.7237V20.1316Z" fill="#374957"/>
</g>
<defs>
<clipPath id="clip0_59_423">
<rect width="24" height="23" fill="white"/>
</clipPath>
</defs>
</svg>
