<svg width="32" height="32" viewBox="0 0 32 32" fill="none" xmlns="http://www.w3.org/2000/svg">
<g filter="url(#filter0_d_118_1136)">
<path d="M6.29004 7.78001V17.51C6.29004 19.41 7.64004 20.19 9.28004 19.25L11.63 17.91C12.14 17.62 12.99 17.59 13.52 17.86L18.77 20.49C19.3 20.75 20.15 20.73 20.66 20.44L24.99 17.96C25.54 17.64 26 16.86 26 16.22V6.49001C26 4.59001 24.65 3.81001 23.01 4.75001L20.66 6.09001C20.15 6.38001 19.3 6.41001 18.77 6.14001L13.52 3.52001C12.99 3.26001 12.14 3.28001 11.63 3.57001L7.30004 6.05001C6.74004 6.37001 6.29004 7.15001 6.29004 7.78001Z" stroke="#292D32" stroke-width="1.5" stroke-linecap="round" stroke-linejoin="round"/>
<path d="M12.5601 4V17" stroke="#292D32" stroke-width="1.5" stroke-linecap="round" stroke-linejoin="round"/>
<path d="M19.73 6.62V20" stroke="#292D32" stroke-width="1.5" stroke-linecap="round" stroke-linejoin="round"/>
</g>
<defs>
<filter id="filter0_d_118_1136" x="0" y="0" width="32" height="32" filterUnits="userSpaceOnUse" color-interpolation-filters="sRGB">
<feFlood flood-opacity="0" result="BackgroundImageFix"/>
<feColorMatrix in="SourceAlpha" type="matrix" values="0 0 0 0 0 0 0 0 0 0 0 0 0 0 0 0 0 0 127 0" result="hardAlpha"/>
<feOffset dy="4"/>
<feGaussianBlur stdDeviation="2"/>
<feComposite in2="hardAlpha" operator="out"/>
<feColorMatrix type="matrix" values="0 0 0 0 0 0 0 0 0 0 0 0 0 0 0 0 0 0 0.25 0"/>
<feBlend mode="normal" in2="BackgroundImageFix" result="effect1_dropShadow_118_1136"/>
<feBlend mode="normal" in="SourceGraphic" in2="effect1_dropShadow_118_1136" result="shape"/>
</filter>
</defs>
</svg>
