<svg width="12" height="12" viewBox="0 0 12 12" fill="none" xmlns="http://www.w3.org/2000/svg">
<g clip-path="url(#clip0_190_1812)">
<path d="M9.5 1.511C9.5 1.507 9.5 1.504 9.5 1.5V0.5C9.5 0.367392 9.44732 0.240215 9.35355 0.146447C9.25979 0.0526784 9.13261 0 9 0C8.86739 0 8.74021 0.0526784 8.64645 0.146447C8.55268 0.240215 8.5 0.367392 8.5 0.5V1.05C8.33544 1.01658 8.16792 0.999832 8 1H7.5V0.5C7.5 0.367392 7.44732 0.240215 7.35355 0.146447C7.25979 0.0526784 7.13261 0 7 0C6.86739 0 6.74021 0.0526784 6.64645 0.146447C6.55268 0.240215 6.5 0.367392 6.5 0.5V1H5.5V0.5C5.5 0.367392 5.44732 0.240215 5.35355 0.146447C5.25979 0.0526784 5.13261 0 5 0C4.86739 0 4.74021 0.0526784 4.64645 0.146447C4.55268 0.240215 4.5 0.367392 4.5 0.5V1H4C3.83208 0.999832 3.66456 1.01658 3.5 1.05V0.5C3.5 0.367392 3.44732 0.240215 3.35355 0.146447C3.25979 0.0526784 3.13261 0 3 0C2.86739 0 2.74021 0.0526784 2.64645 0.146447C2.55268 0.240215 2.5 0.367392 2.5 0.5V1.5V1.511C2.19039 1.74219 1.93885 2.04227 1.76528 2.38749C1.59172 2.73272 1.50089 3.1136 1.5 3.5V9.5C1.50079 10.1628 1.76444 10.7982 2.23311 11.2669C2.70178 11.7356 3.3372 11.9992 4 12H8C8.6628 11.9992 9.29822 11.7356 9.76689 11.2669C10.2356 10.7982 10.4992 10.1628 10.5 9.5V3.5C10.4991 3.1136 10.4083 2.73272 10.2347 2.38749C10.0612 2.04227 9.80961 1.74219 9.5 1.511ZM9.5 9.5C9.5 9.89782 9.34196 10.2794 9.06066 10.5607C8.77936 10.842 8.39782 11 8 11H4C3.60218 11 3.22064 10.842 2.93934 10.5607C2.65804 10.2794 2.5 9.89782 2.5 9.5V3.5C2.5 3.10218 2.65804 2.72064 2.93934 2.43934C3.22064 2.15804 3.60218 2 4 2H8C8.39782 2 8.77936 2.15804 9.06066 2.43934C9.34196 2.72064 9.5 3.10218 9.5 3.5V9.5ZM8.5 4C8.5 4.13261 8.44732 4.25979 8.35355 4.35355C8.25979 4.44732 8.13261 4.5 8 4.5H4C3.86739 4.5 3.74021 4.44732 3.64645 4.35355C3.55268 4.25979 3.5 4.13261 3.5 4C3.5 3.86739 3.55268 3.74021 3.64645 3.64645C3.74021 3.55268 3.86739 3.5 4 3.5H8C8.13261 3.5 8.25979 3.55268 8.35355 3.64645C8.44732 3.74021 8.5 3.86739 8.5 4ZM8.5 6C8.5 6.13261 8.44732 6.25979 8.35355 6.35355C8.25979 6.44732 8.13261 6.5 8 6.5H4C3.86739 6.5 3.74021 6.44732 3.64645 6.35355C3.55268 6.25979 3.5 6.13261 3.5 6C3.5 5.86739 3.55268 5.74021 3.64645 5.64645C3.74021 5.55268 3.86739 5.5 4 5.5H8C8.13261 5.5 8.25979 5.55268 8.35355 5.64645C8.44732 5.74021 8.5 5.86739 8.5 6ZM6.5 8C6.5 8.13261 6.44732 8.25979 6.35355 8.35355C6.25979 8.44732 6.13261 8.5 6 8.5H4C3.86739 8.5 3.74021 8.44732 3.64645 8.35355C3.55268 8.25979 3.5 8.13261 3.5 8C3.5 7.86739 3.55268 7.74021 3.64645 7.64645C3.74021 7.55268 3.86739 7.5 4 7.5H6C6.13261 7.5 6.25979 7.55268 6.35355 7.64645C6.44732 7.74021 6.5 7.86739 6.5 8Z" fill="#2D94CF"/>
</g>
<defs>
<clipPath id="clip0_190_1812">
<rect width="12" height="12" fill="white"/>
</clipPath>
</defs>
</svg>
